<?xml version="1.0" encoding="utf-8"?>
<!-- Generator: Adobe Illustrator 22.0.1, SVG Export Plug-In . SVG Version: 6.00 Build 0)  -->
<svg version="1.1" id="Layer_1" xmlns="http://www.w3.org/2000/svg" xmlns:xlink="http://www.w3.org/1999/xlink" x="0px" y="0px"
	 viewBox="0 0 25 25" style="enable-background:new 0 0 25 25;" xml:space="preserve">
<style type="text/css">
	.st0{fill-rule:evenodd;clip-rule:evenodd;fill:url(#SVGID_1_);}
</style>
<g>
	<g>
		<linearGradient id="SVGID_1_" gradientUnits="userSpaceOnUse" x1="6.5843" y1="18.9669" x2="19.9546" y2="5.5966">
			<stop  offset="0" style="stop-color:#E5962A"/>
			<stop  offset="0.25" style="stop-color:#F3CE64"/>
			<stop  offset="0.53" style="stop-color:#E6A130"/>
			<stop  offset="0.83" style="stop-color:#D98713"/>
			<stop  offset="1" style="stop-color:#F3CE64"/>
		</linearGradient>
		<path class="st0" d="M7.9,12.5c0-1.1,0-2.3,0-3.4c0.7,0,1.3,0,2,0c0,0,0-0.1,0-0.1c0-0.5,0-0.9,0-1.4c0-0.4,0-0.9,0-1.3
			c0-0.6,0.2-1.2,0.5-1.8c0.4-0.8,1-1.3,1.9-1.6c0.4-0.1,0.8-0.2,1.2-0.2c0.3,0,0.6,0,0.9,0c0.8,0,1.6,0,2.5,0c0.1,0,0.1,0,0.1,0.1
			c0,1.1,0,2.1,0,3.2c0,0.1,0,0.1-0.1,0.1c-0.6,0-1.2,0-1.8,0c-0.2,0-0.3,0-0.5,0.1c-0.4,0.1-0.6,0.3-0.6,0.7c0,0.3,0,0.6,0,0.9
			c0,0.4,0,0.9,0,1.3c0,0,0,0.1,0,0.1c1,0,2,0,3,0c-0.1,1.1-0.2,2.3-0.4,3.4c0,0-0.1,0-0.1,0c-0.8,0-1.7,0-2.5,0
			c-0.1,0-0.1,0-0.1,0.1c0,3.2,0,6.4,0,9.7c0,0,0,0.1,0,0.1c-1.3,0-2.7,0-4,0c0,0,0-0.1,0-0.1c0-3.2,0-6.4,0-9.6
			c0-0.2,0-0.1-0.1-0.1C9.2,12.5,8.6,12.5,7.9,12.5C8,12.5,8,12.5,7.9,12.5z"/>
	</g>
</g>
</svg>
