<?xml version="1.0" encoding="utf-8"?>
<!-- Generator: Adobe Illustrator 22.0.1, SVG Export Plug-In . SVG Version: 6.00 Build 0)  -->
<svg version="1.1" id="Layer_1" xmlns="http://www.w3.org/2000/svg" xmlns:xlink="http://www.w3.org/1999/xlink" x="0px" y="0px"
	 viewBox="0 0 25 25" style="enable-background:new 0 0 25 25;" xml:space="preserve">
<style type="text/css">
	.st0{fill-rule:evenodd;clip-rule:evenodd;fill:url(#SVGID_1_);}
	.st1{fill-rule:evenodd;clip-rule:evenodd;fill:url(#SVGID_2_);}
	.st2{fill-rule:evenodd;clip-rule:evenodd;fill:url(#SVGID_3_);}
</style>
<g>
	<g>
		<g>
			<linearGradient id="SVGID_1_" gradientUnits="userSpaceOnUse" x1="6.0106" y1="18.9885" x2="18.9887" y2="6.0104">
				<stop  offset="0" style="stop-color:#E5962A"/>
				<stop  offset="0.25" style="stop-color:#F3CE64"/>
				<stop  offset="0.53" style="stop-color:#E6A130"/>
				<stop  offset="0.83" style="stop-color:#D98713"/>
				<stop  offset="1" style="stop-color:#F3CE64"/>
			</linearGradient>
			<path class="st0" d="M20.2,8.9c-0.1-0.9-0.3-1.7-0.8-2.5c-0.8-1.1-2-1.6-3.3-1.7c-1.2-0.1-2.5-0.1-3.7-0.1c-0.2,0-0.3,0-0.5,0
				c-1.1,0-2.2,0-3.3,0.1C6.7,5,5.4,6.2,4.9,8c-0.2,0.8-0.2,1.6-0.2,2.4c0,1.3,0,2.5,0,3.8c0,0.8,0,1.5,0.1,2.3
				c0.2,1.8,1.4,3.2,3.1,3.7c0.8,0.2,1.6,0.2,2.4,0.2c1.3,0,2.5,0,3.8,0c0.8,0,1.5,0,2.3-0.1c2-0.2,3.4-1.6,3.8-3.6
				c0.1-0.8,0.1-1.5,0.1-2.3C20.3,12.5,20.3,10.7,20.2,8.9z M18.9,13.5c0,0.8,0,1.6-0.1,2.5c-0.1,0.8-0.3,1.6-0.9,2.1
				c-0.5,0.4-1,0.6-1.6,0.7c-0.6,0.1-1.2,0.1-1.8,0.1c-1.3,0-2.6,0-3.8,0c-0.7,0-1.3,0-2-0.1c-1.3-0.2-2.2-1.1-2.4-2.5
				c-0.1-0.6-0.1-1.2-0.1-1.8c0-1.3,0-2.5,0-3.8c0-0.7,0-1.3,0.1-2c0.2-1.3,1.1-2.2,2.5-2.3c0.6-0.1,1.2-0.1,1.8-0.1
				c0.6,0,1.3,0,1.9,0c1.2,0,2.3,0,3.5,0.1c0.8,0.1,1.6,0.3,2.2,1c0.5,0.5,0.6,1.2,0.7,1.8C18.9,10.5,18.9,12,18.9,13.5z"/>
			<linearGradient id="SVGID_2_" gradientUnits="userSpaceOnUse" x1="15.9937" y1="9.0066" x2="17.3237" y2="7.6765">
				<stop  offset="0" style="stop-color:#E5962A"/>
				<stop  offset="0.25" style="stop-color:#F3CE64"/>
				<stop  offset="0.53" style="stop-color:#E6A130"/>
				<stop  offset="0.83" style="stop-color:#D98713"/>
				<stop  offset="1" style="stop-color:#F3CE64"/>
			</linearGradient>
			<path class="st1" d="M16.7,9.3c-0.5,0-0.9-0.4-0.9-0.9c0-0.5,0.4-0.9,0.9-0.9c0.5,0,0.9,0.4,0.9,0.9C17.6,8.9,17.2,9.3,16.7,9.3z
				"/>
			<linearGradient id="SVGID_3_" gradientUnits="userSpaceOnUse" x1="9.6647" y1="15.3313" x2="15.3308" y2="9.6652">
				<stop  offset="0" style="stop-color:#E5962A"/>
				<stop  offset="0.25" style="stop-color:#F3CE64"/>
				<stop  offset="0.53" style="stop-color:#E6A130"/>
				<stop  offset="0.83" style="stop-color:#D98713"/>
				<stop  offset="1" style="stop-color:#F3CE64"/>
			</linearGradient>
			<path class="st2" d="M12.5,8.5c-2.2,0-4,1.8-4,4c0,2.2,1.8,4,4,4c2.2,0,4-1.8,4-4C16.5,10.3,14.7,8.5,12.5,8.5z M12.5,15.1
				c-1.4,0-2.6-1.2-2.6-2.6c0-1.4,1.2-2.6,2.6-2.6c1.4,0,2.6,1.2,2.6,2.6C15.1,13.9,13.9,15.1,12.5,15.1z"/>
		</g>
	</g>
</g>
</svg>
