<?xml version="1.0" encoding="utf-8"?>
<!-- Generator: Adobe Illustrator 22.0.1, SVG Export Plug-In . SVG Version: 6.00 Build 0)  -->
<svg version="1.1" id="Layer_1" xmlns="http://www.w3.org/2000/svg" xmlns:xlink="http://www.w3.org/1999/xlink" x="0px" y="0px"
	 viewBox="0 0 25 25" style="enable-background:new 0 0 25 25;" xml:space="preserve">
<style type="text/css">
	.st0{fill-rule:evenodd;clip-rule:evenodd;fill:url(#SVGID_1_);}
	.st1{fill-rule:evenodd;clip-rule:evenodd;fill:url(#SVGID_2_);}
	.st2{fill-rule:evenodd;clip-rule:evenodd;fill:url(#SVGID_3_);}
	.st3{fill-rule:evenodd;clip-rule:evenodd;fill:url(#SVGID_4_);}
	.st4{fill-rule:evenodd;clip-rule:evenodd;fill:url(#SVGID_5_);}
	.st5{fill-rule:evenodd;clip-rule:evenodd;fill:url(#SVGID_6_);}
</style>
<g>
	<g>
		<g>
			<g>
				<linearGradient id="SVGID_1_" gradientUnits="userSpaceOnUse" x1="1.9871" y1="24.3429" x2="24.7962" y2="1.5338">
					<stop  offset="0" style="stop-color:#E5962A"/>
					<stop  offset="0.25" style="stop-color:#F3CE64"/>
					<stop  offset="0.53" style="stop-color:#E6A130"/>
					<stop  offset="0.83" style="stop-color:#D98713"/>
					<stop  offset="1" style="stop-color:#F3CE64"/>
				</linearGradient>
				<path class="st0" d="M0,22.4C0,22.4,0.1,22.4,0,22.4c0.1,0.1,0.1,0.1,0.1,0.1C0.1,22.4,0,22.4,0,22.4z M26.7,3.6
					C26.7,3.6,26.7,3.5,26.7,3.6c0-0.1,0-0.1,0-0.1c0,0,0,0,0,0C26.7,3.5,26.7,3.5,26.7,3.6C26.7,3.5,26.7,3.6,26.7,3.6z"/>
			</g>
			<g>
				<linearGradient id="SVGID_2_" gradientUnits="userSpaceOnUse" x1="2.3731" y1="19.2532" x2="20.5646" y2="1.0617">
					<stop  offset="0" style="stop-color:#E5962A"/>
					<stop  offset="0.25" style="stop-color:#F3CE64"/>
					<stop  offset="0.53" style="stop-color:#E6A130"/>
					<stop  offset="0.83" style="stop-color:#D98713"/>
					<stop  offset="1" style="stop-color:#F3CE64"/>
				</linearGradient>
				<path class="st1" d="M23.9,5.5C23.9,5.5,23.9,5.5,23.9,5.5c-0.1,0.3-0.3,0.4-0.4,0.6c-0.3,0.4-0.6,0.7-1,1
					c-0.2,0.2-0.5,0.4-0.7,0.6c-0.1,0.1-0.1,0.1-0.1,0.2c0,0.2,0,0.4,0,0.6c0,0.6-0.1,1.1-0.1,1.7c-0.1,0.7-0.3,1.4-0.5,2.1
					c-0.2,0.7-0.6,1.4-0.9,2.1c-0.4,0.7-0.8,1.4-1.4,2c-0.2,0.3-0.4,0.5-0.7,0.8c-0.5,0.5-1,0.9-1.5,1.3c-0.4,0.3-0.8,0.6-1.3,0.8
					c-0.7,0.4-1.4,0.7-2.2,1c-0.7,0.2-1.5,0.4-2.2,0.5c-0.3,0-0.7,0.1-1,0.1c-0.1,0-0.2,0-0.3,0c0,0-0.1,0-0.1,0c-0.1,0-0.1,0-0.2,0
					c-0.2,0-0.5,0-0.7,0c-0.1,0-0.1,0-0.2,0c0,0-0.1,0-0.1,0c-1,0-2-0.2-2.9-0.4c-0.8-0.2-1.7-0.6-2.4-1c-0.3-0.1-0.5-0.3-0.8-0.4
					c-0.1-0.1-0.1-0.1-0.1-0.1c0.1,0,0.2,0,0.3,0c0.4,0,0.8,0,1.1,0c0.3,0,0.7-0.1,1-0.1c0.8-0.1,1.6-0.4,2.3-0.7
					c0.6-0.3,1.1-0.6,1.6-1c0,0,0,0,0,0c-0.2,0-0.3,0-0.5-0.1c-0.5-0.1-1-0.3-1.5-0.5c-0.4-0.2-0.8-0.5-1.1-0.9
					c-0.3-0.3-0.6-0.7-0.8-1.2c-0.1-0.1-0.1-0.2-0.2-0.4c0-0.1,0-0.2,0.1-0.2c0.2,0,0.4,0.1,0.6,0.1c0.3,0,0.7,0,1-0.1
					c-0.2,0-0.4-0.1-0.6-0.2c-0.2-0.1-0.4-0.2-0.6-0.3c-0.2-0.1-0.3-0.2-0.5-0.3c-0.5-0.4-0.9-0.9-1.2-1.5c-0.3-0.5-0.4-1-0.5-1.6
					C3,10,3,9.9,3,9.7c0-0.1,0.1-0.1,0.2-0.1c0.5,0.2,1,0.4,1.5,0.5c0.1,0,0.1,0,0.2,0C4.7,9.9,4.5,9.8,4.3,9.6
					C4,9.3,3.7,8.9,3.5,8.5C3.3,8,3.1,7.5,3.1,6.9C3,6.3,3.1,5.6,3.3,5c0.1-0.2,0.2-0.4,0.3-0.7c0.1-0.1,0.1-0.1,0.2,0
					C4,4.5,4.2,4.7,4.4,4.9c0.4,0.4,0.8,0.8,1.2,1.1c0.5,0.4,1.1,0.8,1.7,1.1c0.7,0.4,1.5,0.8,2.3,1c0.7,0.2,1.5,0.4,2.3,0.5
					c0.3,0,0.5,0.1,0.8,0.1c0.1,0,0.1,0,0.1-0.1c0-0.2,0-0.3-0.1-0.5c0-0.3,0-0.5,0-0.8c0-0.3,0.1-0.5,0.1-0.8
					C13,6.1,13.3,5.5,13.7,5c0.4-0.5,0.9-0.9,1.5-1.2c0.3-0.2,0.7-0.3,1-0.3c0.2,0,0.3,0,0.5,0c0,0,0,0,0,0c0,0,0.1,0,0.1,0
					c0,0,0.1,0,0.1,0c0.2,0,0.4,0,0.6,0c0.1,0,0.3,0,0.4,0c0.3,0,0.6,0.1,0.9,0.3c0.5,0.2,0.9,0.4,1.3,0.8c0.1,0.1,0.1,0.1,0.2,0.2
					c0.1,0.1,0.1,0.1,0.2,0.1c0.6-0.1,1.1-0.3,1.6-0.5c0.3-0.1,0.7-0.3,1-0.5c0,0,0.1,0,0.1,0c0,0,0,0.1,0,0.1
					c-0.1,0.3-0.2,0.5-0.4,0.8c-0.2,0.4-0.5,0.7-0.8,1c-0.2,0.2-0.4,0.3-0.6,0.4h0c0.3-0.1,0.7-0.1,1-0.2c0.4-0.1,0.8-0.2,1.2-0.4
					C23.7,5.5,23.8,5.4,23.9,5.5z"/>
				<linearGradient id="SVGID_3_" gradientUnits="userSpaceOnUse" x1="8.821" y1="21.2116" x2="9.1949" y2="20.8376">
					<stop  offset="0" style="stop-color:#E5962A"/>
					<stop  offset="0.25" style="stop-color:#F3CE64"/>
					<stop  offset="0.53" style="stop-color:#E6A130"/>
					<stop  offset="0.83" style="stop-color:#D98713"/>
					<stop  offset="1" style="stop-color:#F3CE64"/>
				</linearGradient>
				<path class="st2" d="M8.6,21c0.2,0,0.5,0,0.7,0c0,0,0,0,0,0C9.1,21,8.9,21,8.6,21C8.6,21,8.6,21,8.6,21z"/>
				<linearGradient id="SVGID_4_" gradientUnits="userSpaceOnUse" x1="8.5234" y1="21.0693" x2="8.6072" y2="20.9855">
					<stop  offset="0" style="stop-color:#E5962A"/>
					<stop  offset="0.25" style="stop-color:#F3CE64"/>
					<stop  offset="0.53" style="stop-color:#E6A130"/>
					<stop  offset="0.83" style="stop-color:#D98713"/>
					<stop  offset="1" style="stop-color:#F3CE64"/>
				</linearGradient>
				<path class="st3" d="M8.6,21L8.6,21c0,0-0.1,0-0.1,0c0,0,0,0,0,0C8.5,21,8.6,21,8.6,21z"/>
				<linearGradient id="SVGID_5_" gradientUnits="userSpaceOnUse" x1="9.4037" y1="21.0701" x2="9.4911" y2="20.9827">
					<stop  offset="0" style="stop-color:#E5962A"/>
					<stop  offset="0.25" style="stop-color:#F3CE64"/>
					<stop  offset="0.53" style="stop-color:#E6A130"/>
					<stop  offset="0.83" style="stop-color:#D98713"/>
					<stop  offset="1" style="stop-color:#F3CE64"/>
				</linearGradient>
				<path class="st4" d="M9.4,21C9.4,21,9.4,21,9.4,21c0.1,0,0.1,0,0.2,0c0,0,0,0,0,0C9.5,21,9.4,21,9.4,21z"/>
				<linearGradient id="SVGID_6_" gradientUnits="userSpaceOnUse" x1="16.9081" y1="3.4265" x2="16.9564" y2="3.3783">
					<stop  offset="0" style="stop-color:#E5962A"/>
					<stop  offset="0.25" style="stop-color:#F3CE64"/>
					<stop  offset="0.53" style="stop-color:#E6A130"/>
					<stop  offset="0.83" style="stop-color:#D98713"/>
					<stop  offset="1" style="stop-color:#F3CE64"/>
				</linearGradient>
				<path class="st5" d="M17,3.4C17,3.4,16.9,3.4,17,3.4C16.9,3.4,17,3.4,17,3.4z"/>
			</g>
		</g>
	</g>
</g>
</svg>
